<svg width="61" height="100" viewBox="0 0 61 100" fill="none" xmlns="http://www.w3.org/2000/svg">
<path d="M-0.143749 59.6688C-2.84063 59.6688 -5.00625 57.5 -5.00625 54.8625C-5.00625 52.1688 -2.8375 50 -0.143749 50C2.5125 50 4.6625 52.1688 4.6625 54.8625C4.6625 57.5187 2.49375 59.6688 -0.143749 59.6688ZM58.9375 50C58.9375 76.7594 37.2562 98.4375 10.5 98.4375C-16.2563 98.4375 -37.9375 76.7562 -37.9375 50C-37.9375 23.2406 -16.2563 1.5625 10.5 1.5625C37.2562 1.5625 58.9375 23.2437 58.9375 50ZM33.0969 41.9531C31.2625 41.9531 29.6406 42.7156 28.4469 43.9062C24.0719 40.8781 18.175 38.925 11.6312 38.7094L15.0281 23.4156L25.85 25.8563C25.85 28.5125 28.0187 30.6625 30.6531 30.6625C33.35 30.6625 35.5156 28.4562 35.5156 25.8C35.5156 23.1437 33.3469 20.9375 30.6531 20.9375C28.7594 20.9375 27.1375 22.0719 26.3375 23.6344L14.3844 20.9781C13.7969 20.8219 13.1938 21.2531 13.0375 21.8375L9.30625 38.7125C2.82188 38.9875 -3.01875 40.9188 -7.39375 43.9469C-8.58438 42.6969 -10.2656 41.9562 -12.1 41.9562C-18.9156 41.9562 -21.1437 51.1156 -14.9125 54.2219C-15.1281 55.2 -15.2437 56.2125 -15.2437 57.25C-15.2437 67.5219 -3.68125 75.8438 10.5375 75.8438C24.8156 75.8438 36.3781 67.5219 36.3781 57.25C36.3781 56.2156 36.2594 55.1406 36.0062 54.1625C42.1188 51.0375 39.8719 41.9531 33.0969 41.9531ZM19.6406 64.65C16.0875 68.2031 4.77813 68.1469 1.35938 64.65C0.931248 64.2219 0.168751 64.2219 -0.262501 64.65C-0.75 65.1375 -0.75 65.9 -0.262501 66.3313C4.19062 70.7844 16.7875 70.7844 21.2625 66.3313C21.75 65.9 21.75 65.1406 21.2625 64.65C20.8312 64.2219 20.0719 64.2219 19.6406 64.65ZM21.1437 50C18.4875 50 16.3375 52.1688 16.3375 54.8625C16.3375 57.5187 18.5063 59.6688 21.1437 59.6688C23.8406 59.6688 26.0062 57.5 26.0062 54.8625C26.0062 52.1688 23.8563 50 21.1437 50Z" fill="black"/>
</svg>
