<svg width="55" height="100" viewBox="0 0 55 100" fill="none" xmlns="http://www.w3.org/2000/svg">
<g clip-path="url(#clip0_46_63)">
<path d="M39.2083 18.3458C32.6361 15.3452 25.7015 13.2121 18.5791 12C17.6073 13.7439 16.7255 15.5365 15.9375 17.3708C8.34855 16.2248 0.630558 16.2248 -6.95837 17.3708C-7.7478 15.5364 -8.6309 13.7438 -9.6042 12C-16.7331 13.216 -23.6733 15.3548 -30.25 18.3625C-43.3042 37.6792 -46.8459 56.5167 -45.075 75.0875C-37.4267 80.7347 -28.8685 85.0314 -19.7709 87.7917C-17.7222 85.0363 -15.9089 82.1135 -14.35 79.0542C-17.3078 77.9472 -20.1632 76.5837 -22.8834 74.9792C-22.1667 74.4542 -21.4695 73.9292 -20.7917 73.4042C-12.8778 77.1245 -4.24065 79.0535 4.50414 79.0535C13.2489 79.0535 21.8861 77.1245 29.8 73.4042C30.4861 73.9653 31.1833 74.4903 31.8916 74.9792C29.1664 76.5874 26.3054 77.9538 23.3416 79.0625C24.8974 82.1209 26.7109 85.0412 28.7625 87.7917C37.867 85.0429 46.4308 80.7484 54.0791 75.0958C56.1541 53.5625 50.5291 34.8958 39.2083 18.3458ZM-12.1125 63.6667C-17.0417 63.6667 -21.1167 59.1917 -21.1167 53.6875C-21.1167 48.1833 -17.1834 43.6667 -12.125 43.6667C-7.0667 43.6667 -3.0292 48.1792 -3.11253 53.6875C-3.19587 59.1958 -7.08337 63.6667 -12.1125 63.6667ZM21.1125 63.6667C16.1708 63.6667 12.1125 59.1917 12.1125 53.6875C12.1125 48.1833 16.0458 43.6667 21.1125 43.6667C26.1791 43.6667 30.1875 48.1792 30.1 53.6875C30.0125 59.1958 26.1375 63.6667 21.1083 63.6667" fill="black"/>
</g>
<defs>
<clipPath id="clip0_46_63">
<rect width="100" height="100" fill="white" transform="translate(-45.5)"/>
</clipPath>
</defs>
</svg>
