<svg width="63" height="99" viewBox="0 0 63 99" fill="none" xmlns="http://www.w3.org/2000/svg">
<g clip-path="url(#clip0_45_53)">
<path d="M-2.09766 76.6172C-2.09766 77.0078 -2.54688 77.3203 -3.11328 77.3203C-3.75781 77.3789 -4.20703 77.0664 -4.20703 76.6172C-4.20703 76.2266 -3.75781 75.9141 -3.19141 75.9141C-2.60547 75.8555 -2.09766 76.168 -2.09766 76.6172ZM-8.17188 75.7383C-8.30859 76.1289 -7.91797 76.5781 -7.33203 76.6953C-6.82422 76.8906 -6.23828 76.6953 -6.12109 76.3047C-6.00391 75.9141 -6.375 75.4648 -6.96094 75.2891C-7.46875 75.1523 -8.03516 75.3477 -8.17188 75.7383ZM0.460938 75.4062C-0.105469 75.543 -0.496094 75.9141 -0.4375 76.3633C-0.378906 76.7539 0.128906 77.0078 0.714844 76.8711C1.28125 76.7344 1.67188 76.3633 1.61328 75.9727C1.55469 75.6016 1.02734 75.3477 0.460938 75.4062ZM13.3125 0.5625C-13.7773 0.5625 -34.5 21.1289 -34.5 48.2188C-34.5 69.8789 -20.8672 88.4141 -1.39453 94.9375C1.10547 95.3867 1.98438 93.8438 1.98438 92.5742C1.98438 91.3633 1.92578 84.6836 1.92578 80.582C1.92578 80.582 -11.7461 83.5117 -14.6172 74.7617C-14.6172 74.7617 -16.8438 69.0781 -20.0469 67.6133C-20.0469 67.6133 -24.5195 64.5469 -19.7344 64.6055C-19.7344 64.6055 -14.8711 64.9961 -12.1953 69.6445C-7.91797 77.1836 -0.75 75.0156 2.04297 73.7266C2.49219 70.6016 3.76172 68.4336 5.16797 67.1445C-5.75 65.9336 -16.7656 64.3516 -16.7656 45.5625C-16.7656 40.1914 -15.2812 37.4961 -12.1562 34.0586C-12.6641 32.7891 -14.3242 27.5547 -11.6484 20.7969C-7.56641 19.5273 1.82812 26.0703 1.82812 26.0703C5.73438 24.9766 9.93359 24.4102 14.0938 24.4102C18.2539 24.4102 22.4531 24.9766 26.3594 26.0703C26.3594 26.0703 35.7539 19.5078 39.8359 20.7969C42.5117 27.5742 40.8516 32.7891 40.3438 34.0586C43.4688 37.5156 45.3828 40.2109 45.3828 45.5625C45.3828 64.4102 33.8789 65.9141 22.9609 67.1445C24.7578 68.6875 26.2813 71.6172 26.2813 76.207C26.2813 82.7891 26.2227 90.9336 26.2227 92.5352C26.2227 93.8047 27.1211 95.3477 29.6016 94.8984C49.1328 88.4141 62.375 69.8789 62.375 48.2188C62.375 21.1289 40.4023 0.5625 13.3125 0.5625ZM-15.5156 67.9258C-15.7695 68.1211 -15.7109 68.5703 -15.3789 68.9414C-15.0664 69.2539 -14.6172 69.3906 -14.3633 69.1367C-14.1094 68.9414 -14.168 68.4922 -14.5 68.1211C-14.8125 67.8086 -15.2617 67.6719 -15.5156 67.9258ZM-17.625 66.3438C-17.7617 66.5977 -17.5664 66.9102 -17.1758 67.1055C-16.8633 67.3008 -16.4727 67.2422 -16.3359 66.9688C-16.1992 66.7148 -16.3945 66.4023 -16.7852 66.207C-17.1758 66.0898 -17.4883 66.1484 -17.625 66.3438ZM-11.2969 73.2969C-11.6094 73.5508 -11.4922 74.1367 -11.043 74.5078C-10.5938 74.957 -10.0273 75.0156 -9.77344 74.7031C-9.51953 74.4492 -9.63672 73.8633 -10.0273 73.4922C-10.457 73.043 -11.043 72.9844 -11.2969 73.2969ZM-13.5234 70.4258C-13.8359 70.6211 -13.8359 71.1289 -13.5234 71.5781C-13.2109 72.0273 -12.6836 72.2227 -12.4297 72.0273C-12.1172 71.7734 -12.1172 71.2656 -12.4297 70.8164C-12.7031 70.3672 -13.2109 70.1719 -13.5234 70.4258Z" fill="black"/>
</g>
<defs>
<clipPath id="clip0_45_53">
<rect width="96.875" height="100" fill="white" transform="translate(-34.5 -1)"/>
</clipPath>
</defs>
</svg>
